<?xml version="1.0" encoding="UTF-8" standalone="no"?>
<!-- Created with Inkscape (http://www.inkscape.org/) -->
<svg
   xmlns:dc="http://purl.org/dc/elements/1.1/"
   xmlns:cc="http://creativecommons.org/ns#"
   xmlns:rdf="http://www.w3.org/1999/02/22-rdf-syntax-ns#"
   xmlns:svg="http://www.w3.org/2000/svg"
   xmlns="http://www.w3.org/2000/svg"
   xmlns:sodipodi="http://sodipodi.sourceforge.net/DTD/sodipodi-0.dtd"
   xmlns:inkscape="http://www.inkscape.org/namespaces/inkscape"
   width="210mm"
   height="297mm"
   id="svg2"
   sodipodi:version="0.32"
   inkscape:version="0.46"
   sodipodi:docname="constrit.svg"
   inkscape:output_extension="org.inkscape.output.svg.inkscape">
  <defs
     id="defs4">
    <inkscape:perspective
       sodipodi:type="inkscape:persp3d"
       inkscape:vp_x="0 : 526.18109 : 1"
       inkscape:vp_y="0 : 1000 : 0"
       inkscape:vp_z="744.09448 : 526.18109 : 1"
       inkscape:persp3d-origin="372.04724 : 350.78739 : 1"
       id="perspective10" />
  </defs>
  <sodipodi:namedview
     id="base"
     pagecolor="#ffffff"
     bordercolor="#666666"
     borderopacity="1.0"
     inkscape:pageopacity="0.0"
     inkscape:pageshadow="2"
     inkscape:zoom="0.35"
     inkscape:cx="921.95108"
     inkscape:cy="718.56991"
     inkscape:document-units="px"
     inkscape:current-layer="layer1"
     showgrid="true"
     inkscape:window-width="780"
     inkscape:window-height="713"
     inkscape:window-x="104"
     inkscape:window-y="0">
    <inkscape:grid
       type="xygrid"
       id="grid2383" />
  </sodipodi:namedview>
  <metadata
     id="metadata7">
    <rdf:RDF>
      <cc:Work
         rdf:about="">
        <dc:format>image/svg+xml</dc:format>
        <dc:type
           rdf:resource="http://purl.org/dc/dcmitype/StillImage" />
      </cc:Work>
    </rdf:RDF>
  </metadata>
  <g
     inkscape:label="Calque 1"
     inkscape:groupmode="layer"
     id="layer1">
    <path
       style="fill:none;fill-rule:evenodd;stroke:#000000;stroke-width:1px;stroke-linecap:butt;stroke-linejoin:miter;stroke-opacity:1"
       d="M 320,32.362183 L 340,32.362183 L 341.42857,570.93361 C 341.42857,570.93361 421.42857,576.6479 424.28571,652.36218 L 241.42857,653.79075 C 238.57143,572.36218 321.42857,572.36218 321.42857,572.36218 L 320,32.362183 z"
       id="path2389"
       sodipodi:nodetypes="ccccccc" />
    <path
       style="fill:#a0a0a0;stroke:none;stroke-width:1px;stroke-linecap:butt;stroke-linejoin:miter;stroke-opacity:1"
       d="M 242.69017,646.14178 C 242.80011,619.23265 258.65864,594.35168 282.95833,582.9637 C 292.85868,578.32392 311.03767,573.64178 319.15173,573.64178 L 322.9014,573.64178 L 321.85294,303.64178 L 320.80451,33.641775 L 329.35865,33.641775 L 337.91283,33.641775 L 338.85895,105.42749 C 339.37935,144.90963 339.80583,265.97709 339.80667,374.46628 L 339.80823,571.71935 L 349.45108,573.49329 C 376.62758,578.49283 401.19465,594.30019 412.49087,614.0554 C 416.92991,621.8185 422.66537,640.16482 422.66537,646.60098 L 422.66537,650.33188 L 394.57851,651.27256 C 379.13073,651.7899 338.63073,652.2132 304.5785,652.2132 L 242.66537,652.2132 L 242.69017,646.14178 z"
       id="path2393" />
    <path
       style="fill:#e0de20;stroke:none;stroke-width:1px;stroke-linecap:butt;stroke-linejoin:miter;stroke-opacity:1;fill-opacity:1"
       d="M 254.80823,653.72705 C 256.98758,652.7255 255.86934,652.3902 250.09443,652.31362 L 242.52351,652.2132 L 243.44437,643.28463 C 244.70974,631.01582 246.55118,624.34936 251.22788,615.10639 C 259.51733,598.72319 275.61267,585.0624 292.63313,579.96398 C 297.36514,578.5465 301.23868,577.02629 301.241,576.5857 C 301.24331,576.1451 303.3326,575.73218 305.88385,575.66805 C 308.43511,575.6039 313.6678,575.06863 317.51204,574.47852 L 324.50154,573.40558 L 323.53867,560.30939 C 321.21751,528.73946 319.94734,500.25178 320.15214,484.35606 L 320.37303,467.2132 L 321.35575,482.92749 C 321.89627,491.57035 322.09773,394.01678 321.80341,266.14178 L 321.26831,33.641775 L 328.89017,33.641775 L 336.51203,33.641775 L 337.44581,51.008919 C 337.95944,60.560849 338.42038,120.82871 338.47017,184.93749 C 338.54767,284.72249 339.96707,426.91349 341.75855,514.35606 C 342.13697,532.82606 342.03125,534.87866 341.31713,522.92749 C 340.52498,509.67109 340.33355,512.2923 340.09318,539.68599 L 339.80823,572.15879 L 343.53298,573.09363 C 345.8446,573.6738 347.66614,573.36769 348.33418,572.28678 C 349.12915,571.00048 349.63764,571.1367 350.27887,572.8077 C 351.31325,575.50325 354.9863,575.80916 356.00497,573.28463 C 356.47281,572.12522 356.76507,572.29643 356.8383,573.77279 C 356.90753,575.16858 359.29564,576.74829 363.02251,577.86356 C 378.84331,582.59798 398.30605,595.55486 406.85944,607.047 C 409.55904,610.67412 412.15344,613.64178 412.62475,613.64178 C 413.09608,613.64178 413.57504,614.76678 413.68913,616.14178 C 413.8032,617.51678 415.4769,623.14178 417.40841,628.64178 C 419.33994,634.14178 421.32534,640.9634 421.82041,643.80096 L 422.72057,648.96016 L 416.06503,649.87238 C 412.40445,650.37412 390.6956,650.84525 367.82313,650.91935 C 329.41153,651.04378 278.59478,652.65093 259.80823,654.33549 C 254.3863,654.82168 252.83661,654.63309 254.80823,653.72703 L 254.80823,653.72705 z"
       id="path2395" />
  </g>
</svg>
