<?xml version="1.0" encoding="UTF-8" standalone="no"?>
<!-- Created with Inkscape (http://www.inkscape.org/) -->
<svg
   xmlns:dc="http://purl.org/dc/elements/1.1/"
   xmlns:cc="http://creativecommons.org/ns#"
   xmlns:rdf="http://www.w3.org/1999/02/22-rdf-syntax-ns#"
   xmlns:svg="http://www.w3.org/2000/svg"
   xmlns="http://www.w3.org/2000/svg"
   xmlns:sodipodi="http://sodipodi.sourceforge.net/DTD/sodipodi-0.dtd"
   xmlns:inkscape="http://www.inkscape.org/namespaces/inkscape"
   width="210mm"
   height="297mm"
   id="svg2"
   sodipodi:version="0.32"
   inkscape:version="0.46"
   sodipodi:docname="maillot.svg"
   inkscape:output_extension="org.inkscape.output.svg.inkscape">
  <defs
     id="defs4">
    <inkscape:perspective
       sodipodi:type="inkscape:persp3d"
       inkscape:vp_x="0 : 526.18109 : 1"
       inkscape:vp_y="0 : 1000 : 0"
       inkscape:vp_z="744.09448 : 526.18109 : 1"
       inkscape:persp3d-origin="372.04724 : 350.78739 : 1"
       id="perspective10" />
  </defs>
  <sodipodi:namedview
     id="base"
     pagecolor="#ffffff"
     bordercolor="#666666"
     borderopacity="1.0"
     inkscape:pageopacity="0.0"
     inkscape:pageshadow="2"
     inkscape:zoom="1.4727357"
     inkscape:cx="215.9008"
     inkscape:cy="847.38097"
     inkscape:document-units="px"
     inkscape:current-layer="layer1"
     showgrid="true"
     inkscape:snap-global="false"
     inkscape:window-width="780"
     inkscape:window-height="713"
     inkscape:window-x="30"
     inkscape:window-y="0">
    <inkscape:grid
       type="xygrid"
       id="grid2385" />
  </sodipodi:namedview>
  <metadata
     id="metadata7">
    <rdf:RDF>
      <cc:Work
         rdf:about="">
        <dc:format>image/svg+xml</dc:format>
        <dc:type
           rdf:resource="http://purl.org/dc/dcmitype/StillImage" />
      </cc:Work>
    </rdf:RDF>
  </metadata>
  <g
     inkscape:label="Calque 1"
     inkscape:groupmode="layer"
     id="layer1">
    <path
       style="fill:none;fill-rule:evenodd;stroke:#000000;stroke-width:0.75204754px;stroke-linecap:butt;stroke-linejoin:miter;stroke-opacity:1"
       d="M 13.597022,272.18361 L 35.382308,193.5048 L 82.043748,192.81285 C 93.860988,208.32297 105.66018,209.80012 115.26168,192.07427 L 161.25283,192.07427 L 183.84497,270.75308 L 165.75258,270.0145 L 147.53617,233.55946 L 148.34303,372.32027 L 47.416958,372.19825 L 47.485238,234.99 L 34.643728,271.3984 L 13.597022,272.18361 z"
       id="path2389"
       sodipodi:nodetypes="ccccccccccccc" />
    <path
       style="fill:#ff0000;stroke:none;stroke-width:1px;stroke-linecap:butt;stroke-linejoin:miter;stroke-opacity:1;fill-opacity:1"
       d="M 44.765887,102.85502 L 38.545626,102.78459 L 38.545626,79.990905 C 38.545626,67.454374 38.449299,57.197211 38.331566,57.197211 C 38.213835,57.197211 37.154878,59.886765 35.97833,63.173988 L 33.839145,69.150761 L 30.647272,69.361003 C 28.891739,69.476626 27.397045,69.514014 27.325729,69.44408 C 27.254411,69.374135 28.8183,63.567711 30.80103,56.540901 L 34.405996,43.764881 L 42.182923,43.699628 L 49.959842,43.634376 L 51.478291,45.104649 C 53.05508,46.631408 54.754492,47.570355 55.95786,47.579672 C 57.580314,47.592235 59.434602,46.334649 60.952018,44.192598 L 61.696586,43.141538 L 69.28453,43.206741 L 76.872475,43.271952 L 80.604852,56.042725 C 82.65766,63.066645 84.274274,68.875231 84.19732,68.95069 C 84.120372,69.026147 82.858977,69.007786 81.394215,68.909882 L 78.731017,68.731864 L 75.667874,62.718071 C 73.983154,59.41049 72.501043,56.704286 72.374296,56.704286 C 72.235186,56.704286 72.201288,65.887101 72.288765,79.871978 L 72.433671,103.03967 L 61.709914,102.98256 C 55.811842,102.95115 48.187026,102.89376 44.765887,102.85502 z"
       id="path2391" />
    <path
       style="fill:#a0a0a0;stroke:none;stroke-width:1px;stroke-linecap:butt;stroke-linejoin:miter;stroke-opacity:1"
       d="M 136.62563,101.49863 L 130.40537,101.4282 L 130.40537,78.634518 C 130.40537,66.097988 130.30904,55.840818 130.19131,55.840818 C 130.07358,55.840818 129.01462,58.530378 127.83807,61.817598 L 125.69889,67.794368 L 122.50701,68.004618 C 120.75148,68.120238 119.25679,68.157628 119.18547,68.087688 C 119.11415,68.017748 120.67804,62.211318 122.66077,55.184508 L 126.26574,42.408488 L 134.04266,42.343238 L 141.81958,42.277988 L 143.33803,43.748258 C 144.91482,45.275018 146.61423,46.213968 147.8176,46.223288 C 149.44006,46.235848 151.29434,44.978258 152.81176,42.836208 L 153.55633,41.785148 L 161.14427,41.850348 L 168.73222,41.915568 L 172.46459,54.686338 C 174.5174,61.710258 176.13402,67.518838 176.05706,67.594298 C 175.98011,67.669758 174.71872,67.651398 173.25396,67.553498 L 170.59076,67.375478 L 167.52762,61.361678 C 165.8429,58.054098 164.36078,55.347898 164.23404,55.347898 C 164.09493,55.347898 164.06103,64.530708 164.14851,78.515588 L 164.29341,101.68328 L 153.56966,101.62617 C 147.67158,101.59476 140.04677,101.53737 136.62563,101.49863 z"
       id="path2393" />
    <path
       style="fill:#00ff0a;stroke:none;stroke-width:1px;stroke-linecap:butt;stroke-linejoin:miter;stroke-opacity:1;fill-opacity:1"
       d="M 220.98072,99.992286 L 214.76046,99.921856 L 214.76046,77.128176 C 214.76046,64.591646 214.66413,54.334486 214.5464,54.334486 C 214.42867,54.334486 213.36971,57.024036 212.19316,60.311256 L 210.05398,66.288036 L 206.86211,66.498276 C 205.10657,66.613896 203.61188,66.651286 203.54056,66.581346 C 203.46924,66.511406 205.03313,60.704986 207.01586,53.678176 L 210.62083,40.902151 L 218.39776,40.836898 L 226.17468,40.771646 L 227.69312,42.241919 C 229.26991,43.768678 230.96933,44.707625 232.17269,44.716942 C 233.79515,44.729505 235.64944,43.471919 237.16685,41.329868 L 237.91142,40.278808 L 245.49936,40.344011 L 253.08731,40.409222 L 256.81969,53.179996 C 258.87249,60.203916 260.48911,66.012506 260.41215,66.087956 C 260.33521,66.163416 259.07381,66.145056 257.60905,66.047156 L 254.94585,65.869136 L 251.88271,59.855346 C 250.19799,56.547756 248.71588,53.841556 248.58913,53.841556 C 248.45002,53.841556 248.41612,63.024376 248.5036,77.009246 L 248.6485,100.17694 L 237.92475,100.11983 C 232.02668,100.08842 224.40186,100.03103 220.98072,99.992286 z"
       id="path2395" />
    <path
       style="fill:#ff8f01;stroke:none;stroke-width:1px;stroke-linecap:butt;stroke-linejoin:miter;stroke-opacity:1;fill-opacity:1"
       d="M 302.32313,96.979604 L 296.10287,96.909174 L 296.10287,74.115494 C 296.10287,61.578964 296.00655,51.321804 295.88881,51.321804 C 295.77108,51.321804 294.71213,54.011354 293.53558,57.298574 L 291.39639,63.275354 L 288.20452,63.485594 C 286.44899,63.601214 284.95429,63.638604 284.88298,63.568664 C 284.81166,63.498724 286.37555,57.692304 288.35828,50.665494 L 291.96324,37.889474 L 299.74017,37.824214 L 307.51709,37.758964 L 309.03554,39.229234 C 310.61233,40.755994 312.31174,41.694944 313.51511,41.704264 C 315.13756,41.716824 316.99185,40.459234 318.50927,38.317184 L 319.25383,37.266124 L 326.84178,37.331334 L 334.42972,37.396544 L 338.1621,50.167314 C 340.21491,57.191234 341.83152,62.999824 341.75457,63.075274 C 341.67762,63.150734 340.41622,63.132374 338.95146,63.034474 L 336.28826,62.856454 L 333.22512,56.842664 C 331.5404,53.535074 330.05829,50.828874 329.93154,50.828874 C 329.79243,50.828874 329.75854,60.011694 329.84601,73.996564 L 329.99092,97.164254 L 319.26716,97.107144 C 313.36909,97.075734 305.74427,97.018344 302.32313,96.979604 z"
       id="path2397" />
    <path
       style="fill:#f4ff00;stroke:none;stroke-width:1px;stroke-linecap:butt;stroke-linejoin:miter;stroke-opacity:1;fill-opacity:1"
       d="M 379.14653,96.979613 L 372.92627,96.909183 L 372.92627,74.115493 C 372.92627,61.578963 372.82994,51.321803 372.71221,51.321803 C 372.59448,51.321803 371.53552,54.011353 370.35897,57.298573 L 368.21979,63.275353 L 365.02792,63.485593 C 363.27238,63.601213 361.77769,63.638603 361.70637,63.568673 C 361.63505,63.498723 363.19894,57.692303 365.18167,50.665493 L 368.78664,37.889473 L 376.56357,37.824213 L 384.34049,37.758963 L 385.85893,39.229233 C 387.43572,40.755993 389.13514,41.694943 390.3385,41.704263 C 391.96096,41.716823 393.81525,40.459233 395.33266,38.317183 L 396.07723,37.266123 L 403.66517,37.331333 L 411.25312,37.396543 L 414.9855,50.167313 C 417.0383,57.191233 418.65492,62.999823 418.57796,63.075283 C 418.50102,63.150733 417.23962,63.132373 415.77486,63.034473 L 413.11166,62.856453 L 410.04852,56.842663 C 408.3638,53.535083 406.88169,50.828873 406.75494,50.828873 C 406.61583,50.828873 406.58193,60.011693 406.66941,73.996563 L 406.81431,97.164263 L 396.09056,97.107153 C 390.19249,97.075743 382.56767,97.018353 379.14653,96.979613 z"
       id="path2399" />
    <path
       style="fill:#0033ff;fill-opacity:1"
       d="M 137.50927,101.12992 L 130.88894,100.90794 L 130.82156,84.127069 C 130.78448,74.897586 130.55532,64.74899 130.31229,61.574625 L 129.87043,55.803053 L 127.74384,61.574625 L 125.61724,67.346197 L 122.56891,67.54958 L 119.52061,67.752977 L 121.81286,59.401479 C 123.0736,54.808164 124.62594,49.140283 125.2625,46.806192 L 126.41987,42.562389 L 134.03437,42.562389 C 141.11173,42.562389 141.7875,42.679029 143.61387,44.215815 C 147.05428,47.110727 148.86251,47.131898 151.6841,44.310313 L 154.15515,41.839252 L 161.32499,42.031072 L 168.49481,42.222885 L 170.41868,48.673465 C 171.47682,52.221284 173.07739,57.797641 173.97551,61.065369 L 175.60845,67.006693 L 173.1097,67.003624 C 170.65488,67.000602 170.5572,66.896116 167.5554,61.0623 L 164.49986,55.124045 L 164.3212,78.380084 L 164.14253,101.63612 L 154.13607,101.49401 C 148.63251,101.41585 141.15046,101.25202 137.50927,101.12992 L 137.50927,101.12992 z"
       id="path3171" />
  </g>
</svg>
